<?xml version="1.0" standalone="no"?><!DOCTYPE svg PUBLIC "-//W3C//DTD SVG 1.1//EN" "http://www.w3.org/Graphics/SVG/1.1/DTD/svg11.dtd"><svg t="1714991537641" class="icon" viewBox="0 0 1024 1024" version="1.1" xmlns="http://www.w3.org/2000/svg" p-id="2316" width="32" height="32" xmlns:xlink="http://www.w3.org/1999/xlink"><path d="M365.714286 731.428571q0-30.281143-21.430857-51.712t-51.712-21.430857-51.712 21.430857-21.430857 51.712 21.430857 51.712 51.712 21.430857 51.712-21.430857 21.430857-51.712zM566.272 785.115429q-7.460571-132.534857-101.156571-226.304t-226.304-101.156571q-7.972571-0.585143-13.677714 5.12t-5.705143 13.165714l0 73.142857q0 7.460571 4.827429 12.580571t12.288 5.705143q87.990857 6.290286 150.820571 69.12t69.12 150.820571q0.585143 7.460571 5.705143 12.288t12.580571 4.827429l73.142857 0q7.460571 0 13.165714-5.705143t5.12-13.677714zM785.700571 785.700571q-2.852571-87.990857-32.036571-169.984t-79.725714-148.553143-117.174857-117.174857-148.553143-79.725714-169.984-32.036571q-7.972571-0.585143-13.165714 5.12-5.705143 5.705143-5.705143 13.165714l0 73.142857q0 7.460571 5.12 12.580571t12.580571 5.705143q116.589714 4.022857 215.990857 63.707429t159.158857 159.158857 63.707429 215.990857q0.585143 7.460571 5.705143 12.580571t12.580571 5.12l73.142857 0q7.460571 0 13.165714-5.705143 6.290286-5.12 5.12-13.165714zM950.857143 237.714286l0 548.571429q0 68.022857-48.274286 116.297143t-116.297143 48.274286l-548.571429 0q-68.022857 0-116.297143-48.274286t-48.274286-116.297143l0-548.571429q0-68.022857 48.274286-116.297143t116.297143-48.274286l548.571429 0q68.022857 0 116.297143 48.274286t48.274286 116.297143z" fill="#e1c8ff" p-id="2317"></path></svg>