<?xml version="1.0" encoding="UTF-8"?>
<svg id="_图层_1" data-name="图层 1" xmlns="http://www.w3.org/2000/svg" viewBox="0 0 100 101.77">
  <defs>
    <style>
      .cls-1 {
        fill: none;
      }

      .cls-2 {
        fill: #8e4fdb;
      }
    </style>
  </defs>
  <line class="cls-1" y1="101.77" x2="100" y2="1.77"/>
  <line class="cls-1" x1="100" y1="101.77" y2="1.77"/>
  <path class="cls-2" d="M19.42,93.88c-2.54-1.94-3.99-4.07-4.36-6.38-.37-2.31-.12-4.62,.78-6.93,.89-2.31,2.08-4.5,3.57-6.59,1.94-2.53,4.66-5.39,8.16-8.6,3.5-3.2,8.08-6.74,13.74-10.61-7,0-12.85-.26-17.54-.78-4.69-.53-8.53-1.23-11.51-2.13-2.38-.89-4.66-1.97-6.81-3.24-2.16-1.26-3.73-2.98-4.69-5.14-.97-2.16-1.01-4.73-.12-7.71,1.65-4.62,4.25-7.08,7.83-7.38,3.57-.3,7.22,.15,10.95,1.34,2.97,1.05,6.51,2.72,10.61,5.03,4.1,2.31,8.98,5.48,14.64,9.5-2.24-6.56-3.84-12.15-4.8-16.77-.97-4.61-1.46-8.49-1.46-11.62,0-2.53,.29-5.02,.89-7.49,.59-2.46,1.76-4.47,3.47-6.03s4.14-2.35,7.27-2.35,5.73,.78,7.38,2.35c1.64,1.56,2.76,3.57,3.35,6.03,.6,2.46,.9,4.96,.9,7.49,0,3.14-.49,7.01-1.46,11.62-.97,4.62-2.57,10.21-4.8,16.77,5.66-4.03,10.5-7.19,14.52-9.5s7.45-3.98,10.29-5.03c2.53-.89,5.06-1.41,7.59-1.56,2.54-.15,4.84,.34,6.93,1.46,2.08,1.12,3.57,3.16,4.47,6.15,1.48,4.62,.85,8.16-1.9,10.61-2.76,2.46-5.93,4.28-9.5,5.48-3.13,.9-7,1.6-11.62,2.13-4.62,.52-10.43,.78-17.43,.78,5.67,4.02,10.25,7.59,13.75,10.72,3.49,3.13,6.15,5.97,7.93,8.49,1.49,2.09,2.72,4.33,3.69,6.71,.96,2.38,1.26,4.69,.89,6.92-.37,2.24-1.9,4.33-4.58,6.27-2.54,1.78-4.96,2.53-7.27,2.23-2.31-.29-4.43-1.26-6.37-2.9s-3.66-3.43-5.14-5.37c-1.94-2.68-3.84-6.18-5.7-10.5s-3.84-9.76-5.92-16.32c-2.09,6.56-4.1,12-6.04,16.32-1.94,4.32-3.87,7.75-5.81,10.28-1.49,2.09-3.2,3.96-5.14,5.59-1.94,1.64-4.02,2.61-6.26,2.9-2.24,.3-4.69-.45-7.38-2.23Z"/>
</svg>