<?xml version="1.0" encoding="UTF-8"?>
<svg id="_图层_3" data-name="图层 3" xmlns="http://www.w3.org/2000/svg" viewBox="0 0 2000 2000">
  <defs>
    <style>
      .cls-1 {
        fill: #e1c8ff;
        stroke-width: 0px;
      }
    </style>
  </defs>
  <path class="cls-1" d="M1562.73,463.47c-191,168.22-305.26,262.4-457.65,322.25,68.09,2.95,57.17,62.29,8.9,101.94,266.1-5.44,637.67-57.59,637.67-57.59,0,0-509.28,65.97-556.55-7.31-36.8-57.05,51.97-78.14,51.36-30.85,72.12-110.57,301.3-313.33,316.28-328.44Z"/>
  <path class="cls-1" d="M1869.77,1149.62s-370.59-66.12-572.16,49.81c-4.33-113.02-94.21-134.58-94.21-134.58,0,0,94.06,24.52,111.34-50.41,17.28-74.92-263.67-96.34-263.67-96.34,0,0,160.09-17.38,261.88,18.35,120.58,42.33,136.18,67.12,136.18,67.12,0,0-35.33-12.37-85.23,7.93-56.12,22.82-75.91,113.73-11.15,107.18,219.09-22.15,517.02,30.95,517.02,30.95Z"/>
  <path class="cls-1" d="M1580.33,1545.5s-299.33-216.62-342.25-435.74c-89.23,60.43-37.86-112.92-33.21-139.27-52.4,175.91-86.25,155.84-124.87,75.07,8.36,69.72.82,153.43,119.15,248.68-77.56-82.17-62.76-162.48-25.95-116.41,131.97,165.13,407.12,367.67,407.12,367.67Z"/>
  <path class="cls-1" d="M1054.1,1116.22s76.36,230.24,217.23,356.34c-163.96-128.32-182.45-284.91-260.06-282.98-20.31.5-38.96,21.35-25.33,39.14,10.44,13.64,44.36,4.92,44.36,4.92-2.29,2.05-46.43,35.82-73.23,68.92-71.29,88.05-199.71,345.91-199.71,345.91,108.22-231.83,188.2-394,270.08-685.5,0,0-72.55,259.96,26.67,153.24Z"/>
  <path class="cls-1" d="M437.27,1536.53c191-168.22,305.26-262.4,457.65-322.25-68.09-2.95-57.17-62.29-8.9-101.94-266.1,5.44-637.67,57.59-637.67,57.59,0,0,509.28-65.97,556.55,7.31,36.8,57.05-51.97,78.14-51.36,30.85-72.12,110.57-301.3,313.33-316.28,328.44Z"/>
  <path class="cls-1" d="M130.23,850.38s370.59,66.12,572.16-49.81c4.33,113.02,94.21,134.58,94.21,134.58,0,0-94.06-24.52-111.34,50.41-17.28,74.92,263.67,96.34,263.67,96.34,0,0-160.09,17.38-261.88-18.35-120.58-42.33-136.18-67.12-136.18-67.12,0,0,35.33,12.37,85.23-7.93,56.12-22.82,75.91-113.73,11.15-107.18-219.09,22.15-517.02-30.95-517.02-30.95Z"/>
  <path class="cls-1" d="M419.67,454.5s299.33,216.62,342.25,435.74c89.23-60.43,37.86,112.92,33.21,139.27,52.4-175.91,86.25-155.84,124.87-75.07-8.36-69.72-.82-153.43-119.15-248.68,77.56,82.17,62.76,162.48,25.95,116.41-131.97-165.13-407.12-367.67-407.12-367.67Z"/>
  <path class="cls-1" d="M945.9,883.78s-76.36-230.24-217.23-356.34c163.96,128.32,182.45,284.91,260.06,282.98,20.31-.5,38.96-21.35,25.33-39.14-10.44-13.64-44.36-4.92-44.36-4.92,2.29-2.05,46.43-35.82,73.23-68.92,71.29-88.05,199.71-345.91,199.71-345.91-108.22,231.83-188.2,394-270.08,685.5,0,0,72.55-259.96-26.67-153.24Z"/>
</svg>